<svg width="236" height="114" viewBox="0 0 236 114" version="1.1" xmlns="http://www.w3.org/2000/svg" xmlns:xlink="http://www.w3.org/1999/xlink">
<title>chat (1)</title>
<desc>Created using Figma</desc>
<g id="Canvas" transform="translate(852 -905)">
<g id="chat (1)">
<g id="Vector">
<use xlink:href="#path0_fill" transform="matrix(0.998541 -0.0540057 0.0540057 0.998541 -852 918)" fill="#1B9AEF"/>
</g>
</g>
</g>
<defs>
<path id="path0_fill" d="M 207.813 0L 23.0903 0C 10.5754 0 0 4.93742 0 10.7804L 0 70.0725C 0 75.9155 10.5754 80.8529 23.0903 80.8529L 53.8774 80.8529L 53.8774 98.8202C 53.8774 99.5622 54.8549 100.229 56.3365 100.497C 56.7906 100.577 57.2601 100.617 57.7258 100.617C 58.7879 100.617 59.8308 100.41 60.5736 100.029L 97.9106 80.8529L 207.813 80.8529C 220.328 80.8529 230.903 75.9155 230.903 70.0725L 230.903 10.7804C 230.903 4.93742 220.328 0 207.813 0ZM 223.206 70.0725C 223.206 73.9678 216.156 77.2594 207.813 77.2594L 104.595 77.2594L 118.369 69.7832C 119.754 69.0322 119.573 67.8967 117.961 67.2498C 116.352 66.603 113.916 66.6893 112.531 67.4403L 93.2964 77.8811L 61.5742 94.1739L 61.5742 79.0562C 61.5742 78.0644 59.8501 77.2594 57.7258 77.2594L 23.0903 77.2594C 14.747 77.2594 7.69677 73.9678 7.69677 70.0725L 7.69677 10.7804C 7.69677 6.88507 14.747 3.59346 23.0903 3.59346L 207.813 3.59346C 216.156 3.59346 223.206 6.88507 223.206 10.7804L 223.206 70.0725Z"/>
</defs>
</svg>
