<svg width="29" height="27" viewBox="0 0 29 27" version="1.1" xmlns="http://www.w3.org/2000/svg" xmlns:xlink="http://www.w3.org/1999/xlink">
<title>close</title>
<desc>Created using Figma</desc>
<g id="Canvas" transform="translate(-1098 -922)">
<g id="close">
<g id="Group">
<g id="Vector">
<use xlink:href="#path0_fill" transform="translate(1098 922)"/>
</g>
</g>
</g>
</g>
<defs>
<path id="path0_fill" d="M 17.0647 13.5003L 28.4686 2.88242C 29.1771 2.22331 29.1771 1.15387 28.4686 0.494757C 27.7601 -0.164919 26.6127 -0.164919 25.9042 0.494757L 14.5003 11.1126L 3.09581 0.494757C 2.3873 -0.164919 1.23989 -0.164919 0.531384 0.494757C -0.177128 1.15387 -0.177128 2.22331 0.531384 2.88242L 11.9359 13.5003L 0.531384 24.1181C -0.177128 24.7773 -0.177128 25.8467 0.531384 26.5058C 0.885639 26.8351 1.34992 27 1.8136 27C 2.27727 27 2.74155 26.8351 3.09581 26.5052L 14.5003 15.8874L 25.9042 26.5052C 26.2584 26.8351 26.7227 27 27.1864 27C 27.6501 27 28.1144 26.8351 28.4686 26.5052C 29.1771 25.8461 29.1771 24.7767 28.4686 24.1176L 17.0647 13.5003Z"/>
</defs>
</svg>
