<svg width="27" height="25" viewBox="0 0 27 25" version="1.1" xmlns="http://www.w3.org/2000/svg" xmlns:xlink="http://www.w3.org/1999/xlink">
<title>emoticon-neutral-face-outline</title>
<desc>Created using Figma</desc>
<g id="Canvas" transform="translate(-1385 -1299)">
<g id="emoticon-neutral-face-outline">
<g id="Group">
<g id="Vector">
<use xlink:href="#path0_fill" transform="translate(1385 1299)" fill="#933EC5"/>
</g>
</g>
</g>
</g>
<defs>
<path id="path0_fill" d="M 8.63865 16.996L 18.3557 16.996L 18.3557 17.9946L 8.63865 17.9946L 8.63865 16.996ZM 9.71706 8.99728C 9.71706 8.44835 9.23149 7.99874 8.63865 7.99874C 8.0458 7.99874 7.56023 8.44835 7.56023 8.99728C 7.56023 9.54622 8.0458 9.99582 8.63865 9.99582C 9.23149 9.99582 9.71706 9.54622 9.71706 8.99728ZM 18.3557 7.99874C 17.7629 7.99874 17.2773 8.44835 17.2773 8.99728C 17.2773 9.54622 17.7629 9.99582 18.3557 9.99582C 18.9486 9.99582 19.4342 9.54622 19.4342 8.99728C 19.4342 8.44835 18.9486 7.99874 18.3557 7.99874ZM 27 12.5C 27 19.4009 20.9529 25 13.5 25C 6.04705 25 0 19.4009 0 12.5C 0 5.59912 6.04705 0 13.5 0C 20.9473 0 27 5.59912 27 12.5ZM 25.9159 12.5C 25.9159 6.101 20.4109 1.00376 13.5 1.00376C 6.58908 1.00376 1.08407 6.101 1.08407 12.5C 1.08407 18.899 6.58908 23.9962 13.5 23.9962C 20.4109 23.9962 25.9159 18.899 25.9159 12.5Z"/>
</defs>
</svg>
