<svg width="137" height="107" viewBox="0 0 137 107" version="1.1" xmlns="http://www.w3.org/2000/svg" xmlns:xlink="http://www.w3.org/1999/xlink">
<title>fish</title>
<desc>Created using Figma</desc>
<g id="Canvas" transform="translate(-1266 -963)">
<g id="fish">
<g id="Group">
<g id="Group">
<g id="Vector">
<use xlink:href="#path0_fill" transform="translate(1266 993.186)" fill="#F99B2B"/>
</g>
<g id="Vector">
<use xlink:href="#path1_fill" transform="translate(1266 1016.5)" fill="#F99B2B"/>
</g>
</g>
<g id="Vector">
<use xlink:href="#path2_fill" transform="translate(1295.45 963)" fill="#CC640E"/>
</g>
<g id="Vector">
<use xlink:href="#path3_fill" transform="translate(1300.05 967.372)" fill="#CC640E"/>
</g>
<g id="Vector">
<use xlink:href="#path4_fill" transform="translate(1364.72 979.453)" fill="#F99B2B"/>
</g>
<g id="Group">
<g id="Vector">
<use xlink:href="#path5_fill" transform="translate(1371.12 999.721)" fill="#FFFFFF"/>
</g>
<g id="Vector">
<use xlink:href="#path6_fill" transform="translate(1374.5 1002.94)" fill="#4D4D4D"/>
</g>
</g>
<g id="Vector">
<use xlink:href="#path7_fill" transform="translate(1322.93 1027.54)" fill="#F99B2B"/>
</g>
</g>
</g>
</g>
<defs>
<path id="path0_fill" d="M 36.0454 23.3136L 24.5108 23.3136C 10.9737 23.3136 0 12.8759 0 -5.85183e-07L 11.5345 -5.85183e-07C 25.0716 -5.85183e-07 36.0454 10.4377 36.0454 23.3136Z"/>
<path id="path1_fill" d="M 36.0454 1.05333e-06L 24.5108 1.05333e-06C 10.9737 1.05333e-06 0 10.4381 0 23.3136L 11.5345 23.3136C 25.0716 23.3136 36.0454 12.8759 36.0454 1.05333e-06Z"/>
<path id="path2_fill" d="M 56.2473 -1.2679e-07L 63.6931 8.7858L 73.6286 2.61839L 77.8555 13.1629L 89.3087 10.2175L 89.9031 21.4881L 85.395 29.6769L 98.6558 32.9473L 93.1078 45.0162L 103.258 46.4179L 94.521 53.5L 103.258 60.5821L 94.4666 66.5875L 98.6558 74.053L 87.411 73.2985L 89.9031 85.5119L 89.3087 96.7824L 77.8555 93.8374L 73.6286 104.382L 63.6931 98.2142L 56.2473 107L 48.8016 98.2142L 38.8657 104.382L 34.6389 93.8374L 23.186 96.7824L 22.5916 85.5119L 10.7422 84.9465L 13.8385 74.053L 2.75284 70.0326L 9.23696 60.5821L 3.28125e-07 53.5L 9.23696 46.4179L 2.75284 36.9677L 13.8385 32.9473L 10.7422 22.0535L 22.5916 21.4881L 23.186 10.2175L 34.6389 13.1629L 38.8657 2.61839L 48.8016 8.7858L 56.2473 -1.2679e-07Z"/>
<path id="path3_fill" d="M 102.931 55.0077C 101.517 66.2732 96.1002 76.369 88.0631 83.9624C 78.7257 92.7958 65.8603 98.2544 51.6508 98.2544C 23.353 98.2544 0.370588 76.6087 0.00434809 49.7761C -0.365251 22.5695 22.8758 0.0865282 51.4828 0.000239427C 64.5297 -0.0381111 76.4577 4.52561 85.57 12.0807C 94.9578 19.8626 101.362 30.8245 102.924 43.2022C 102.938 43.3172 102.945 43.4323 102.945 43.5473C 102.945 45.0845 101.644 46.3725 99.9844 46.3725C 96.7857 46.3725 94.1917 48.8397 94.1917 51.8822L 99.9877 51.8822C 101.748 51.8822 103.139 53.3427 102.931 55.0077Z"/>
<path id="path4_fill" d="M 38.2603 42.9271C 36.8457 54.1925 31.4294 64.2883 23.3923 71.8818C 9.49199 65.017 2.29687e-06 51.2012 2.29687e-06 35.2729C 2.29687e-06 20.3194 8.37311 7.22269 20.8992 -6.24195e-07C 30.287 7.78197 36.6912 18.7438 38.2536 31.1215C 38.267 31.2365 38.2737 31.3516 38.2737 31.4666C 38.2737 33.0039 36.9734 34.2918 35.3136 34.2918C 32.1148 34.2918 29.5209 36.759 29.5209 39.8015L 35.3169 39.8015C 37.0775 39.8015 38.4686 41.262 38.2603 42.9271Z"/>
<path id="path5_fill" d="M 8.72086 16.5898C 13.5373 16.5898 17.4417 12.8761 17.4417 8.29491C 17.4417 3.71376 13.5373 0 8.72086 0C 3.90446 0 0 3.71376 0 8.29491C 0 12.8761 3.90446 16.5898 8.72086 16.5898Z"/>
<path id="path6_fill" d="M 5.33567 10.1501C 8.28248 10.1501 10.6713 7.87794 10.6713 5.07506C 10.6713 2.27218 8.28248 -2.18468e-06 5.33567 -2.18468e-06C 2.38886 -2.18468e-06 3.77343e-06 2.27218 3.77343e-06 5.07506C 3.77343e-06 7.87794 2.38886 10.1501 5.33567 10.1501Z"/>
<path id="path7_fill" d="M 20.9965 1.87259e-06L 30.2009 8.75479L 21.6705 23.1241C 17.9033 29.4705 8.81182 30.6511 3.39383 25.4977C -2.02417 20.3443 -0.782982 11.6969 5.8893 8.1137L 20.9965 1.87259e-06Z"/>
</defs>
</svg>
