<svg width="38" height="33" viewBox="0 0 38 33" version="1.1" xmlns="http://www.w3.org/2000/svg" xmlns:xlink="http://www.w3.org/1999/xlink">
<title>home-interface</title>
<desc>Created using Figma</desc>
<g id="Canvas" transform="translate(440 -1417)">
<g id="home-interface">
<g id="Group">
<g id="Group">
<g id="Group">
<g id="Group">
<g id="Vector">
<use xlink:href="#path0_fill" transform="translate(-440 1417)" fill="#FFFFFF"/>
</g>
<g id="Vector">
<use xlink:href="#path1_fill" transform="translate(-435.25 1424.97)" fill="#FFFFFF"/>
</g>
</g>
</g>
</g>
</g>
</g>
</g>
<defs>
<path id="path0_fill" d="M 37.5931 15.071L 19.7812 0.278213C 19.3347 -0.0927378 18.672 -0.0927378 18.2255 0.278213L 11.875 5.54901L 11.875 3.41427C 11.875 2.15797 10.811 1.13848 9.50013 1.13848C 8.18921 1.13848 7.12516 2.15805 7.12516 3.41427L 7.12516 9.493L 0.40885 15.071C -0.0851274 15.4829 -0.139736 16.2022 0.290102 16.6778C 0.722361 17.1511 1.47048 17.2012 1.9668 16.7916L 18.9998 2.64504L 36.0305 16.7916C 36.2584 16.9782 36.5315 17.0692 36.8094 17.0692C 37.1443 17.0692 37.4697 16.9349 37.7048 16.6778C 38.1417 16.2022 38.0847 15.4875 37.5931 15.071Z"/>
<path id="path1_fill" d="M 15.7528 0.518882C 15.3182 0.175257 14.7839 -2.7416e-08 14.2495 -2.7416e-08C 13.7151 -2.7416e-08 13.1807 0.172936 12.7438 0.518882L 0.869206 9.84746C 0.318199 10.2799 6.67563e-08 10.9239 6.67563e-08 11.6089L 6.67563e-08 22.7582C 6.67563e-08 24.0145 1.06397 25.034 2.37489 25.034L 9.49963 25.034L 9.49963 13.655L 18.9993 13.655L 18.9993 25.0341L 26.1241 25.0341C 27.4327 25.0341 28.499 24.0145 28.499 22.7583L 28.499 11.609C 28.499 10.9217 28.1783 10.28 27.6273 9.84978L 15.7528 0.518882Z"/>
</defs>
</svg>
