<svg width="38" height="34" viewBox="0 0 38 34" version="1.1" xmlns="http://www.w3.org/2000/svg" xmlns:xlink="http://www.w3.org/1999/xlink">
<title>line-chart</title>
<desc>Created using Figma</desc>
<g id="Canvas" transform="translate(344 -1417)">
<g id="line-chart">
<g id="Group">
<g id="Group">
<g id="Vector">
<use xlink:href="#path0_fill" transform="translate(-341.424 1438.86)" fill="#FFFFFF"/>
</g>
<g id="Vector">
<use xlink:href="#path1_fill" transform="translate(-332.914 1438.78)" fill="#FFFFFF"/>
</g>
<g id="Vector">
<use xlink:href="#path2_fill" transform="translate(-324.404 1436.47)" fill="#FFFFFF"/>
</g>
<g id="Vector">
<use xlink:href="#path3_fill" transform="translate(-315.895 1427.98)" fill="#FFFFFF"/>
</g>
<g id="Vector">
<use xlink:href="#path4_fill" transform="translate(-344 1417)" fill="#FFFFFF"/>
</g>
</g>
</g>
</g>
</g>
<defs>
<path id="path0_fill" d="M 0 4.92646L 0 11.4156C 0 11.8104 0.304473 12.1393 0.687017 12.1393L 5.44929 12.1393C 5.82403 12.1393 6.13631 11.8186 6.13631 11.4156L 6.13631 6.82696e-07L 2.6778 3.64344C 1.94395 4.40832 1.0071 4.85244 0 4.92646Z"/>
<path id="path1_fill" d="M 0 6.82696e-07L 0 11.4978C 0 11.8926 0.304474 12.2216 0.687017 12.2216L 5.44929 12.2216C 5.82403 12.2216 6.13631 11.9008 6.13631 11.4978L 6.13631 4.72908C 5.05114 4.7044 4.03622 4.25206 3.27114 3.44606L 0 6.82696e-07Z"/>
<path id="path2_fill" d="M 0 6.32462L 0 13.8089C 0 14.2037 0.304472 14.5327 0.687016 14.5327L 5.44929 14.5327C 5.82403 14.5327 6.13631 14.2119 6.13631 13.8089L 6.13631 1.80714e-07L 0.679211 5.74891C 0.468422 5.97097 0.242017 6.16013 0 6.32462Z"/>
<path id="path3_fill" d="M 5.6757 4.31705e-07L 0 5.9792L 0 22.2966C 0 22.6913 0.304472 23.0203 0.687016 23.0203L 5.44929 23.0203C 5.82403 23.0203 6.13631 22.6996 6.13631 22.2966L 6.13631 0.452347C 5.98017 0.312531 5.86306 0.189162 5.77719 0.106918L 5.6757 4.31705e-07Z"/>
<path id="path4_fill" d="M 37.6766 0.38655C 37.4502 0.131592 37.1067 1.17966e-07 36.6695 1.17966e-07C 36.6305 1.17966e-07 36.5836 1.17966e-07 36.5446 1.17966e-07C 34.3274 0.106918 32.118 0.222061 29.9008 0.328979C 29.6042 0.345428 29.1982 0.361877 28.8781 0.699081C 28.7766 0.805999 28.6986 0.929366 28.6361 1.07741C 28.3082 1.82583 28.7688 2.31108 28.9874 2.54136L 29.5417 3.13353C 29.9243 3.54475 30.3146 3.95597 30.705 4.35897L 17.3081 18.4804L 11.2889 12.1393C 10.9298 11.761 10.4458 11.5472 9.93052 11.5472C 9.41525 11.5472 8.93903 11.761 8.5799 12.1393L 0.562105 20.5776C -0.187368 21.3672 -0.187368 22.642 0.562105 23.4315L 0.921227 23.8099C 1.28035 24.1882 1.76438 24.402 2.27965 24.402C 2.79491 24.402 3.27114 24.1882 3.63026 23.8099L 9.93052 17.1727L 15.9497 23.5138C 16.3088 23.8921 16.7929 24.1059 17.3081 24.1059C 17.8234 24.1059 18.2996 23.8921 18.6666 23.5138L 33.7809 7.59119L 35.4907 9.38413C 35.6936 9.59797 35.9747 9.89405 36.4041 9.89405C 36.5836 9.89405 36.7632 9.8447 36.9506 9.73778C 37.0755 9.66376 37.1848 9.58152 37.2785 9.48282C 37.6142 9.12917 37.6766 8.67683 37.6922 8.32317C 37.7547 6.80987 37.825 5.29656 37.8952 3.77504L 37.9967 1.49686C 38.0201 1.01984 37.9186 0.649734 37.6766 0.38655Z"/>
</defs>
</svg>
