<svg width="46" height="40" viewBox="0 0 46 40" version="1.1" xmlns="http://www.w3.org/2000/svg" xmlns:xlink="http://www.w3.org/1999/xlink">
<title>turtle (2)</title>
<desc>Created using Figma</desc>
<g id="Canvas" transform="translate(-687 -805)">
<g id="turtle (2)">
<g id="Group">
<g id="Vector">
<use xlink:href="#path0_fill" transform="translate(709.795 805)" fill="#A0D468"/>
</g>
<g id="Vector">
<use xlink:href="#path1_fill" transform="translate(709.795 829.993)" fill="#A0D468"/>
</g>
<g id="Vector">
<use xlink:href="#path2_fill" transform="translate(694.665 805)" fill="#A0D468"/>
</g>
<g id="Vector">
<use xlink:href="#path3_fill" transform="translate(694.665 829.993)" fill="#A0D468"/>
</g>
<g id="Vector">
<use xlink:href="#path4_fill" transform="translate(687 823.948)" fill="#A0D468"/>
</g>
<g id="Vector">
<use xlink:href="#path5_fill" transform="translate(719.582 818.685)" fill="#A0D468"/>
</g>
</g>
<g id="Group">
<g id="Vector">
<use xlink:href="#path6_fill" transform="translate(727.25 826.053)" fill="#656D78"/>
</g>
<g id="Vector">
<use xlink:href="#path7_fill" transform="translate(727.25 821.843)" fill="#656D78"/>
</g>
</g>
<g id="Vector">
<use xlink:href="#path8_fill" transform="translate(688.916 807.105)" fill="#F6BB42"/>
</g>
<g id="Group">
<g id="Vector">
<use xlink:href="#path9_fill" transform="translate(700.492 815.514)" fill="#FFCE54"/>
</g>
<g id="Vector">
<use xlink:href="#path10_fill" transform="translate(713.756 828.145)" fill="#FFCE54"/>
</g>
<g id="Vector">
<use xlink:href="#path11_fill" transform="translate(707.125 832.355)" fill="#FFCE54"/>
</g>
<g id="Vector">
<use xlink:href="#path12_fill" transform="translate(692.296 828.144)" fill="#FFCE54"/>
</g>
<g id="Vector">
<use xlink:href="#path13_fill" transform="translate(692.295 813.277)" fill="#FFCE54"/>
</g>
<g id="Vector">
<use xlink:href="#path14_fill" transform="translate(707.125 807.105)" fill="#FFCE54"/>
</g>
<g id="Vector">
<use xlink:href="#path15_fill" transform="translate(713.756 813.277)" fill="#FFCE54"/>
</g>
</g>
<g id="turtle (2)">
<g id="Group">
<g id="Vector">
<use xlink:href="#path0_fill" transform="translate(709.795 805)" fill="#A0D468"/>
</g>
<g id="Vector">
<use xlink:href="#path1_fill" transform="translate(709.795 829.993)" fill="#A0D468"/>
</g>
<g id="Vector">
<use xlink:href="#path2_fill" transform="translate(694.665 805)" fill="#A0D468"/>
</g>
<g id="Vector">
<use xlink:href="#path3_fill" transform="translate(694.665 829.993)" fill="#A0D468"/>
</g>
<g id="Vector">
<use xlink:href="#path4_fill" transform="translate(687 823.948)" fill="#A0D468"/>
</g>
<g id="Vector">
<use xlink:href="#path5_fill" transform="translate(719.582 818.685)" fill="#A0D468"/>
</g>
</g>
<g id="Group">
<g id="Vector">
<use xlink:href="#path6_fill" transform="translate(727.25 826.053)" fill="#656D78"/>
</g>
<g id="Vector">
<use xlink:href="#path7_fill" transform="translate(727.25 821.843)" fill="#656D78"/>
</g>
</g>
<g id="Vector">
<use xlink:href="#path8_fill" transform="translate(688.916 807.105)" fill="#F6BB42"/>
</g>
<g id="Group">
<g id="Vector">
<use xlink:href="#path9_fill" transform="translate(700.492 815.514)" fill="#FFCE54"/>
</g>
<g id="Vector">
<use xlink:href="#path10_fill" transform="translate(713.756 828.145)" fill="#FFCE54"/>
</g>
<g id="Vector">
<use xlink:href="#path11_fill" transform="translate(707.125 832.355)" fill="#FFCE54"/>
</g>
<g id="Vector">
<use xlink:href="#path12_fill" transform="translate(692.296 828.144)" fill="#FFCE54"/>
</g>
<g id="Vector">
<use xlink:href="#path13_fill" transform="translate(692.295 813.277)" fill="#FFCE54"/>
</g>
<g id="Vector">
<use xlink:href="#path14_fill" transform="translate(707.125 807.105)" fill="#FFCE54"/>
</g>
<g id="Vector">
<use xlink:href="#path15_fill" transform="translate(713.756 813.277)" fill="#FFCE54"/>
</g>
</g>
</g>
</g>
</g>
<defs>
<path id="path0_fill" d="M 0.463742 11.5987L 5.38973 14.857C 5.54417 14.9603 5.71542 15.0081 5.88389 15.0081C 6.20815 15.0081 6.5254 14.8277 6.70509 14.4993L 11.1552 6.38224C 11.6829 5.4201 11.8374 4.28822 11.5916 3.1965C 11.3446 2.10478 10.7255 1.18419 9.84823 0.604482C 9.25156 0.208139 8.56791 1.77697e-07 7.87303 1.77697e-07C 6.53663 1.77697e-07 5.27607 0.78173 4.58685 2.03856L 0.138043 10.1539C -0.135633 10.652 0.010281 11.2996 0.463742 11.5987Z"/>
<path id="path1_fill" d="M 6.70509 0.509446C 6.57455 0.268838 6.3626 0.0961297 6.11552 0.0313884C 5.86843 -0.0365109 5.60734 0.00671516 5.38973 0.151692L 0.463742 3.40829C 0.010281 3.70733 -0.135633 4.35504 0.138043 4.85155L 4.58685 12.9686C 5.27607 14.2269 6.53663 15.0071 7.87303 15.0071C 8.56791 15.0071 9.25165 14.8005 9.84823 14.4027C 10.7256 13.8228 11.3446 12.9037 11.5916 11.8121C 11.8373 10.7204 11.6829 9.58851 11.1552 8.62322L 6.70509 0.509446Z"/>
<path id="path2_fill" d="M 7.11848 2.03856C 6.42917 0.781829 5.16996 -1.44567e-07 3.83213 -1.44567e-07C 3.13725 -1.44567e-07 2.45494 0.208139 1.85701 0.604481C 0.979557 1.18429 0.360507 2.10488 0.114863 3.1965C -0.132218 4.28822 0.0222305 5.4201 0.550085 6.38224L 5.00015 14.4993C 5.17984 14.8277 5.49709 15.0081 5.82279 15.0081C 5.98973 15.0081 6.16107 14.9604 6.31543 14.857L 11.2414 11.5987C 11.6949 11.2996 11.8409 10.652 11.5685 10.1539L 7.11848 2.03856Z"/>
<path id="path3_fill" d="M 11.2414 3.40825L 6.3154 0.151648C 6.09779 0.00667147 5.83679 -0.0364559 5.5897 0.0313448C 5.34406 0.096086 5.13202 0.268794 5.00012 0.509403L 0.55141 8.62327C 0.022118 9.58847 -0.13224 10.7204 0.114841 11.8122C 0.360484 12.9039 0.979625 13.8229 1.85699 14.4027C 2.45501 14.8005 3.13731 15.0072 3.83211 15.0072C 5.16994 15.0072 6.42915 14.2269 7.11846 12.9686L 11.5685 4.8516C 11.8409 4.35499 11.6948 3.70728 11.2414 3.40825Z"/>
<path id="path4_fill" d="M 2.87494 -5.18031e-07L 0.957326 -5.18031e-07C 0.428124 -5.18031e-07 0 0.470361 0 1.05323C 0 1.63452 0.428214 2.10478 0.957326 2.10478L 2.87494 2.10478C 3.4028 2.10478 3.83236 1.63442 3.83236 1.05323C 3.83236 0.470263 3.4028 -5.18031e-07 2.87494 -5.18031e-07Z"/>
<path id="path5_fill" d="M 11.3876 1.78403C 10.1299 0.633694 8.46778 5.90314e-07 6.70883 5.90314e-07C 4.94845 5.90314e-07 3.2877 0.633694 2.02984 1.78403C 0.720129 2.98214 -7.89676e-07 4.59199 -7.89676e-07 6.31592C -7.89676e-07 8.03906 0.720129 9.64881 2.02984 10.8454C 3.2877 11.9958 4.94845 12.6311 6.70883 12.6311C 8.46778 12.6311 10.1299 11.9958 11.3876 10.8454C 12.696 9.64881 13.4176 8.03896 13.4176 6.31592C 13.4176 4.59199 12.696 2.98214 11.3876 1.78403Z"/>
<path id="path6_fill" d="M 0.957416 2.10557C 0.428123 2.10557 -1.11871e-06 1.63383 -1.11871e-06 1.05402C -1.11871e-06 0.47194 0.428213 5.78267e-07 0.957416 5.78267e-07C 1.48662 5.78267e-07 1.91618 0.471841 1.91618 1.05402C 1.91618 1.63383 1.48662 2.10557 0.957416 2.10557Z"/>
<path id="path7_fill" d="M 0.957416 2.10478C 0.428123 2.10478 -1.11871e-06 1.63294 -1.11871e-06 1.05155C -1.11871e-06 0.470262 0.428213 -1.08425e-07 0.957416 -1.08425e-07C 1.48662 -1.08425e-07 1.91618 0.470262 1.91618 1.05155C 1.91618 1.63294 1.48662 2.10478 0.957416 2.10478Z"/>
<path id="path8_fill" d="M 36.801 10.8679C 35.824 8.73384 34.4314 6.82023 32.6597 5.18107C 29.0477 1.8396 24.2552 1.98779e-07 19.1663 1.98779e-07C 14.0775 1.98779e-07 9.28629 1.8395 5.67424 5.18107C 3.90127 6.82023 2.50872 8.73384 1.53298 10.8679C 0.515186 13.0914 1.91935e-08 15.4569 1.91935e-08 17.8963C 1.91935e-08 20.335 0.515186 22.7004 1.53298 24.9238C 2.50864 27.0579 3.90127 28.97 5.67424 30.6106C 9.28629 33.9506 14.0775 35.7917 19.1663 35.7917C 24.2552 35.7917 29.0476 33.9506 32.6597 30.6106C 34.4314 28.97 35.824 27.0579 36.801 24.9238C 37.8174 22.7004 38.334 20.335 38.334 17.8963C 38.3339 15.4569 37.8173 13.0915 36.801 10.8679Z"/>
<path id="path9_fill" d="M 14.7022 4.35222L 8.07047 0.141078C 7.7729 -0.0470267 7.40785 -0.0470267 7.11027 0.141078L 0.478619 4.35222C 0.182391 4.54032 -6.03225e-07 4.88722 -6.03225e-07 5.26353L -6.03225e-07 13.6835C -6.03225e-07 14.0597 0.182391 14.4083 0.478619 14.5964L 7.11027 18.8059C 7.25906 18.9015 7.42474 18.9478 7.59042 18.9478C 7.75609 18.9478 7.92168 18.9015 8.07047 18.8059L 14.7021 14.5964C 14.9984 14.4083 15.1808 14.0597 15.1808 13.6835L 15.1808 5.26353C 15.1809 4.88732 14.9984 4.54032 14.7022 4.35222Z"/>
<path id="path10_fill" d="M 1.5195 0.198043C 1.09003 -0.141256 0.491915 -0.0332874 0.181672 0.435494C -0.128572 0.907335 -0.0317187 1.56738 0.397843 1.90658L 8.81216 8.58016C 9.27685 8.08058 9.71064 7.55633 10.1122 7.01353L 1.5195 0.198043Z"/>
<path id="path11_fill" d="M 0.957416 -1.08425e-06C 0.428124 -1.08425e-06 4.93548e-07 0.47184 4.93548e-07 1.05155L 4.93548e-07 10.5195C 0.317252 10.5318 0.637379 10.5411 0.957416 10.5411C 1.27889 10.5411 1.59758 10.5318 1.91618 10.5195L 1.91618 1.05155C 1.91627 0.47184 1.48662 -1.08425e-06 0.957416 -1.08425e-06Z"/>
<path id="path12_fill" d="M 8.59267 0.198903L 1.91935e-08 7.01449C 0.401529 7.55729 0.835223 8.07848 1.30135 8.58111L 9.71576 1.90754C 10.144 1.56824 10.2408 0.908295 9.93193 0.436454C 9.6216 -0.035486 9.02223 -0.140396 8.59267 0.198903Z"/>
<path id="path13_fill" d="M 9.71576 6.64426L 1.30135 -3.61417e-08C 0.835223 0.501152 0.401529 1.02224 1.23387e-07 1.56504L 8.59689 8.35438C 8.76535 8.4885 8.9605 8.55176 9.15565 8.55176C 9.45323 8.55176 9.74667 8.40067 9.93337 8.11377C 10.2422 7.64203 10.1453 6.98356 9.71576 6.64426Z"/>
<path id="path14_fill" d="M 0.957416 1.44567e-07C 0.637379 1.44567e-07 0.317252 0.00769821 4.93548e-07 0.0216136L 4.93548e-07 9.46159C 4.93548e-07 10.0429 0.428213 10.5132 0.957416 10.5132C 1.48662 10.5132 1.91618 10.0429 1.91618 9.46159L 1.91618 0.0216136C 1.59758 0.00769821 1.27889 1.44567e-07 0.957416 1.44567e-07Z"/>
<path id="path15_fill" d="M 8.81343 -3.61417e-08L 0.399107 6.64436C -0.0304547 6.98366 -0.12875 7.64203 0.180057 8.11387C 0.36676 8.40066 0.66155 8.55186 0.959215 8.55186C 1.15284 8.55186 1.34799 8.4886 1.51789 8.35448L 10.1134 1.56514C 9.7119 1.02224 9.27812 0.499573 8.81343 -3.61417e-08Z"/>
</defs>
</svg>
