<svg width="118" height="118" viewBox="0 0 118 118" version="1.1" xmlns="http://www.w3.org/2000/svg" xmlns:xlink="http://www.w3.org/1999/xlink">
<title>turtle (1)</title>
<desc>Created using Figma</desc>
<g id="Canvas" transform="translate(-924 -942)">
<g id="turtle (1)">
<g id="Group">
<g id="Group">
<g id="Vector">
<use xlink:href="#path0_fill" transform="matrix(0.707107 -0.707107 0.707107 0.707107 1002.44 1002.63)" fill="#3FAE2A"/>
</g>
<g id="Vector">
<use xlink:href="#path1_fill" transform="matrix(0.707107 -0.707107 0.707107 0.707107 1002.44 1002.63)" fill="#379624"/>
</g>
<g id="Vector">
<use xlink:href="#path2_fill" transform="matrix(0.707107 -0.707107 0.707107 0.707107 1020.17 1003.45)" fill="#4A9C3B"/>
</g>
<g id="Vector">
<use xlink:href="#path3_fill" transform="matrix(0.707107 -0.707107 0.707107 0.707107 1025.15 1008.43)" fill="#4A9C3B"/>
</g>
</g>
<g id="Group">
<g id="Vector">
<use xlink:href="#path4_fill" transform="matrix(0.707107 -0.707107 0.707107 0.707107 970.257 1034.82)" fill="#3FAE2A"/>
</g>
<g id="Vector">
<use xlink:href="#path5_fill" transform="matrix(0.707107 -0.707107 0.707107 0.707107 970.256 1034.82)" fill="#379624"/>
</g>
<g id="Vector">
<use xlink:href="#path6_fill" transform="matrix(0.707107 -0.707107 0.707107 0.707107 987.639 1047.2)" fill="#4A9C3B"/>
</g>
<g id="Vector">
<use xlink:href="#path7_fill" transform="matrix(0.707107 -0.707107 0.707107 0.707107 979.875 1036.39)" fill="#4A9C3B"/>
</g>
</g>
<g id="Group">
<g id="Vector">
<use xlink:href="#path8_fill" transform="matrix(0.707107 -0.707107 0.707107 0.707107 975.43 969.799)" fill="#3FAE2A"/>
</g>
<g id="Vector">
<use xlink:href="#path9_fill" transform="matrix(0.707107 -0.707107 0.707107 0.707107 980.095 974.463)" fill="#379624"/>
</g>
<g id="Vector">
<use xlink:href="#path10_fill" transform="matrix(0.707107 -0.707107 0.707107 0.707107 992.966 960.539)" fill="#4A9C3B"/>
</g>
<g id="Vector">
<use xlink:href="#path11_fill" transform="matrix(0.707107 -0.707107 0.707107 0.707107 1002.38 964.264)" fill="#4A9C3B"/>
</g>
<g id="Vector">
<use xlink:href="#path12_fill" transform="matrix(0.707107 -0.707107 0.707107 0.707107 1003.24 959.767)" fill="#4A9C3B"/>
</g>
</g>
<g id="Group">
<g id="Vector">
<use xlink:href="#path13_fill" transform="matrix(0.707107 -0.707107 0.707107 0.707107 924.017 1021.21)" fill="#3FAE2A"/>
</g>
<g id="Vector">
<use xlink:href="#path14_fill" transform="matrix(0.707107 -0.707107 0.707107 0.707107 928.681 1025.88)" fill="#379624"/>
</g>
<g id="Vector">
<use xlink:href="#path15_fill" transform="matrix(0.707107 -0.707107 0.707107 0.707107 940.126 1022.88)" fill="#4A9C3B"/>
</g>
<g id="Vector">
<use xlink:href="#path16_fill" transform="matrix(0.707107 -0.707107 0.707107 0.707107 939.907 1012.55)" fill="#4A9C3B"/>
</g>
</g>
<g id="Group">
<g id="Vector">
<use xlink:href="#path17_fill" transform="matrix(0.707107 -0.707107 0.707107 0.707107 924.58 962.616)" fill="#3FAE2A"/>
</g>
<g id="Group">
<g id="Vector">
<use xlink:href="#path18_fill" transform="matrix(0.707107 -0.707107 0.707107 0.707107 947.614 952.984)" fill="#FFFFFF"/>
</g>
<g id="Vector">
<use xlink:href="#path19_fill" transform="matrix(0.707107 -0.707107 0.707107 0.707107 951.286 952.953)" fill="#5F4637"/>
</g>
</g>
<g id="Group">
<g id="Vector">
<use xlink:href="#path20_fill" transform="matrix(0.707107 -0.707107 0.707107 0.707107 927.578 973.02)" fill="#FFFFFF"/>
</g>
<g id="Vector">
<use xlink:href="#path21_fill" transform="matrix(0.707107 -0.707107 0.707107 0.707107 931.25 972.989)" fill="#5F4637"/>
</g>
</g>
<g id="Vector">
<use xlink:href="#path22_fill" transform="matrix(0.707107 -0.707107 0.707107 0.707107 954.12 963.466)" fill="#4A9C3B"/>
</g>
<g id="Vector">
<use xlink:href="#path23_fill" transform="matrix(0.707107 -0.707107 0.707107 0.707107 942.266 972.897)" fill="#4A9C3B"/>
</g>
<g id="Vector">
<use xlink:href="#path24_fill" transform="matrix(0.707107 -0.707107 0.707107 0.707107 939.987 960.552)" fill="#4A9C3B"/>
</g>
</g>
<g id="Vector">
<use xlink:href="#path25_fill" transform="matrix(0.707107 -0.707107 0.707107 0.707107 930.661 994.309)" fill="#A75A29"/>
</g>
<g id="Vector">
<use xlink:href="#path26_fill" transform="matrix(0.707107 -0.707107 0.707107 0.707107 939.234 994.237)" fill="#E89E6C"/>
</g>
<g id="Vector">
<use xlink:href="#path27_fill" transform="matrix(0.707107 -0.707107 0.707107 0.707107 963.464 999.544)" fill="#BD8158"/>
</g>
<g id="Vector">
<use xlink:href="#path28_fill" transform="matrix(0.707107 -0.707107 0.707107 0.707107 962.176 1017.18)" fill="#BD8158"/>
</g>
<g id="Vector">
<use xlink:href="#path29_fill" transform="matrix(0.707107 -0.707107 0.707107 0.707107 939.234 994.237)" fill="#BD8158"/>
</g>
</g>
</g>
</g>
<defs>
<path id="path0_fill" d="M 7.53255 3.17207e-06L -8.4615e-07 3.17207e-06L -8.4615e-07 14.6588C -8.4615e-07 25.698 9.10127 34.6473 20.3284 34.6473L 20.3284 12.5817C 20.3284 5.6329 14.5994 3.17207e-06 7.53255 3.17207e-06Z"/>
<path id="path1_fill" d="M 20.3284 31.0821C 10.6947 29.5119 3.34712 21.286 3.34712 11.368L 3.34712 1.56003e-07L -8.4615e-07 1.56003e-07L -8.4615e-07 14.6588C -8.4615e-07 25.698 9.10127 34.6473 20.3284 34.6473L 20.3284 31.0821Z"/>
<path id="path2_fill" d="M 1.99242 3.91828C 3.0928 3.91828 3.98484 3.04114 3.98484 1.95914C 3.98484 0.877137 3.0928 0 1.99242 0C 0.892038 0 2.27403e-06 0.877137 2.27403e-06 1.95914C 2.27403e-06 3.04114 0.892038 3.91828 1.99242 3.91828Z"/>
<path id="path3_fill" d="M 3.05989 6.01758C 4.74982 6.01758 6.11979 4.6705 6.11979 3.00879C 6.11979 1.34708 4.74982 0 3.05989 0C 1.36996 0 2.27403e-06 1.34708 2.27403e-06 3.00879C 2.27403e-06 4.6705 1.36996 6.01758 3.05989 6.01758Z"/>
<path id="path4_fill" d="M 12.7958 3.17207e-06C 5.72902 3.17207e-06 7.00718e-07 5.63333 7.00718e-07 12.5817L 7.00718e-07 34.6473C 11.2271 34.6473 20.328 25.698 20.328 14.6588L 20.328 3.17207e-06L 12.7958 3.17207e-06Z"/>
<path id="path5_fill" d="M 7.00718e-07 31.0821C 9.63371 29.5119 16.9813 21.286 16.9813 11.368L 16.9813 1.56003e-07L 20.328 1.56003e-07L 20.328 14.6588C 20.328 25.698 11.2267 34.6473 7.00718e-07 34.6473L 7.00718e-07 31.0821Z"/>
<path id="path6_fill" d="M 3.21975 6.33196C 4.99798 6.33196 6.43951 4.9145 6.43951 3.16598C 6.43951 1.41745 4.99798 0 3.21975 0C 1.44153 0 0 1.41745 0 3.16598C 0 4.9145 1.44153 6.33196 3.21975 6.33196Z"/>
<path id="path7_fill" d="M 4.37517 8.60421C 6.79152 8.60421 8.75035 6.67808 8.75035 4.3021C 8.75035 1.92611 6.79152 -2.75606e-06 4.37517 -2.75606e-06C 1.95883 -2.75606e-06 0 1.92611 0 4.3021C 0 6.67808 1.95883 8.60421 4.37517 8.60421Z"/>
<path id="path8_fill" d="M 23.4225 3.68537C 18.4256 -1.22846 10.3238 -1.22846 5.32655 3.68537L 3.17306e-06 8.92295L 10.5413 19.2882C 18.4802 27.0941 31.351 27.0941 39.2895 19.2882L 23.4225 3.68537Z"/>
<path id="path9_fill" d="M 36.7257 10.1714C 28.7846 15.7596 17.6731 15.0512 10.5413 8.03806L 2.36673 1.50803e-06L 2.6971e-06 2.3272L 10.5413 12.6925C 18.4802 20.4983 31.351 20.4983 39.2895 12.6925L 36.7257 10.1714Z"/>
<path id="path10_fill" d="M 2.46377 4.84524C 3.82448 4.84524 4.92754 3.7606 4.92754 2.42262C 4.92754 1.08464 3.82448 0 2.46377 0C 1.10307 0 2.96152e-06 1.08464 2.96152e-06 2.42262C 2.96152e-06 3.7606 1.10307 4.84524 2.46377 4.84524Z"/>
<path id="path11_fill" d="M 1.47688 2.90442C 2.29253 2.90442 2.95375 2.25424 2.95375 1.45221C 2.95375 0.650176 2.29253 0 1.47688 0C 0.661221 0 2.90864e-06 0.650176 2.90864e-06 1.45221C 2.90864e-06 2.25424 0.661221 2.90442 1.47688 2.90442Z"/>
<path id="path12_fill" d="M 1.47688 2.90442C 2.29253 2.90442 2.95375 2.25424 2.95375 1.45221C 2.95375 0.650173 2.29253 0 1.47688 0C 0.661221 0 2.90864e-06 0.650173 2.90864e-06 1.45221C 2.90864e-06 2.25424 0.661221 2.90442 1.47688 2.90442Z"/>
<path id="path13_fill" d="M 33.9634 3.68537C 28.9661 -1.22846 20.8647 -1.22846 15.8674 3.68537L -3.6358e-08 19.2882C 7.93848 27.0941 20.8097 27.0941 28.7482 19.2882L 39.2895 8.92295L 33.9634 3.68537Z"/>
<path id="path14_fill" d="M 2.56385 10.1714C 10.5049 15.7596 21.6164 15.0512 28.7482 8.03806L 36.9228 1.50803e-06L 39.2895 2.3272L 28.7482 12.6925C 20.8093 20.4983 7.93848 20.4983 -3.6358e-08 12.6925L 2.56385 10.1714Z"/>
<path id="path15_fill" d="M 2.46377 4.84524C 3.82447 4.84524 4.92754 3.7606 4.92754 2.42262C 4.92754 1.08464 3.82447 0 2.46377 0C 1.10307 0 0 1.08464 0 2.42262C 0 3.7606 1.10307 4.84524 2.46377 4.84524Z"/>
<path id="path16_fill" d="M 3.21976 6.33196C 4.99798 6.33196 6.43951 4.9145 6.43951 3.16598C 6.43951 1.41746 4.99798 0 3.21976 0C 1.44153 0 0 1.41746 0 3.16598C 0 4.9145 1.44153 6.33196 3.21976 6.33196Z"/>
<path id="path17_fill" d="M 14.1679 0C 6.34333 0 -1.26922e-06 6.23739 -1.26922e-06 13.9312L -1.26922e-06 35.5299L 28.3353 35.5299L 28.3353 13.9312C 28.3357 6.23739 21.9924 0 14.1679 0Z"/>
<path id="path18_fill" d="M 5.23644 10.2979C 8.12844 10.2979 10.4729 7.99268 10.4729 5.14897C 10.4729 2.30527 8.12844 0 5.23644 0C 2.34443 0 0 2.30527 0 5.14897C 0 7.99268 2.34443 10.2979 5.23644 10.2979Z"/>
<path id="path19_fill" d="M 2.618 5.14855C 4.06388 5.14855 5.236 3.99601 5.236 2.57427C 5.236 1.15254 4.06388 0 2.618 0C 1.17212 0 0 1.15254 0 2.57427C 0 3.99601 1.17212 5.14855 2.618 5.14855Z"/>
<path id="path20_fill" d="M 5.23643 10.2979C 8.12844 10.2979 10.4729 7.99268 10.4729 5.14897C 10.4729 2.30527 8.12844 0 5.23643 0C 2.34443 0 0 2.30527 0 5.14897C 0 7.99268 2.34443 10.2979 5.23643 10.2979Z"/>
<path id="path21_fill" d="M 2.618 5.14855C 4.06388 5.14855 5.236 3.99601 5.236 2.57427C 5.236 1.15254 4.06388 0 2.618 0C 1.17212 0 0 1.15254 0 2.57427C 0 3.99601 1.17212 5.14855 2.618 5.14855Z"/>
<path id="path22_fill" d="M 1.47688 2.90442C 2.29253 2.90442 2.95375 2.25424 2.95375 1.45221C 2.95375 0.650177 2.29253 0 1.47688 0C 0.661222 0 -3.06729e-06 0.650177 -3.06729e-06 1.45221C -3.06729e-06 2.25424 0.661222 2.90442 1.47688 2.90442Z"/>
<path id="path23_fill" d="M 3.21976 6.33196C 4.99798 6.33196 6.43951 4.9145 6.43951 3.16598C 6.43951 1.41746 4.99798 0 3.21976 0C 1.44153 0 0 1.41746 0 3.16598C 0 4.9145 1.44153 6.33196 3.21976 6.33196Z"/>
<path id="path24_fill" d="M 4.41287 8.67833C 6.85003 8.67833 8.82574 6.73562 8.82574 4.33916C 8.82574 1.94271 6.85003 0 4.41287 0C 1.97571 0 -2.00961e-06 1.94271 -2.00961e-06 4.33916C -2.00961e-06 6.73562 1.97571 8.67833 4.41287 8.67833Z"/>
<path id="path25_fill" d="M 32.2781 78.9352C 14.4516 78.9352 -2.24759e-07 64.7258 -2.24759e-07 47.1966L -2.24759e-07 31.739C -2.24759e-07 14.2103 14.4512 -1.43003e-07 32.2781 -1.43003e-07C 50.1046 -1.43003e-07 64.5563 14.2098 64.5563 31.739L 64.5563 47.1966C 64.5563 64.7258 50.1046 78.9352 32.2781 78.9352Z"/>
<path id="path26_fill" d="M 26.1657 66.9145C 11.7379 66.9145 -1.37499e-06 55.3727 -1.37499e-06 41.1863L -1.37499e-06 25.7287C -1.37499e-06 11.5414 11.7379 -1.50803e-06 26.1653 -1.50803e-06C 40.5931 -1.50803e-06 52.331 11.5414 52.331 25.7287L 52.331 41.1863C 52.331 55.3727 40.5935 66.9145 26.1657 66.9145Z"/>
<path id="path27_fill" d="M 12.7846 25.1421C 19.8453 25.1421 25.5691 19.5138 25.5691 12.571C 25.5691 5.62825 19.8453 0 12.7846 0C 5.72385 0 0 5.62825 0 12.571C 0 19.5138 5.72385 25.1421 12.7846 25.1421Z"/>
<path id="path28_fill" d="M 52.331 0L 0 0L 0 2.02346L 52.331 2.02346L 52.331 0Z"/>
<path id="path29_fill" d="M 8.2738 18.5401C 8.2738 15.602 6.68472 13.0354 4.31063 11.6053C 1.58995 15.6629 0.000431616 20.515 0.000431616 25.7287L 0.000431616 26.6757C 4.56926 26.6752 8.2738 23.0326 8.2738 18.5401ZM -1.37499e-06 40.2393L -1.37499e-06 41.1863C -1.37499e-06 46.3991 1.58952 51.252 4.31019 55.3092C 6.68429 53.8791 8.27337 51.3125 8.27337 48.3745C 8.2738 43.8815 4.56926 40.2393 -1.37499e-06 40.2393ZM 26.1653 16.2559C 33.6519 16.2559 40.3457 12.9285 44.8088 7.69897C 40.0594 2.95085 33.4574 -1.50803e-06 26.1653 -1.50803e-06C 18.8736 -1.50803e-06 12.2716 2.95128 7.52171 7.69897C 11.9853 12.9289 18.6791 16.2559 26.1653 16.2559ZM 48.0212 11.6053C 45.6471 13.0354 44.0581 15.602 44.0581 18.5401C 44.0581 23.033 47.7622 26.6757 52.3314 26.6757L 52.3314 25.7287C 52.331 20.515 50.7419 15.6629 48.0212 11.6053ZM 44.0576 48.3745C 44.0576 51.3125 45.6467 53.8791 48.0208 55.3092C 50.7415 51.252 52.331 46.3991 52.331 41.1863L 52.331 40.2393C 47.7622 40.2393 44.0576 43.8815 44.0576 48.3745ZM 26.1653 50.6582C 18.6791 50.6582 11.9853 53.9856 7.52171 59.2156C 12.2716 63.9637 18.8732 66.9145 26.1653 66.9145C 33.4574 66.9145 40.0589 63.9632 44.8088 59.2156C 40.3457 53.9852 33.6519 50.6582 26.1653 50.6582Z"/>
</defs>
</svg>
