<svg width="234" height="83" viewBox="0 0 234 83" version="1.1" xmlns="http://www.w3.org/2000/svg" xmlns:xlink="http://www.w3.org/1999/xlink">
<title>noun_139541_cc</title>
<desc>Created using Figma</desc>
<g id="Canvas" transform="translate(-69 -871)">
<g id="noun_139541_cc">
<g id="Vector">
<use xlink:href="#path0_fill" transform="translate(69 871)" fill="#F4F5F7"/>
<mask id="mask0_outline_ins">
<use xlink:href="#path0_fill" fill="white" transform="translate(69 871)"/>
</mask>
<g mask="url(#mask0_outline_ins)">
<use xlink:href="#path1_stroke_2x" transform="translate(69 871)" fill="#1B9AEF"/>
</g>
</g>
</g>
</g>
<defs>
<path id="path0_fill" fill-rule="evenodd" d="M 227.633 1.91683C 223.708 0.735008 218.271 6.77707e-09 212.288 6.77707e-09L 21.7105 6.77707e-09C 15.7285 6.77707e-09 10.2918 0.735008 6.36649 1.91683C 2.44104 3.09871 1.4358e-08 4.73556 1.4358e-08 6.53717L 1.4358e-08 63.9163C 1.4358e-08 65.7175 2.44104 67.3543 6.36649 68.5361C 10.2918 69.718 15.7285 70.453 21.7105 70.453L 65.0772 70.453L 65.0376 78.2813L 65.0159 83L 78.2671 80.4819L 124.388 70.3992L 212.661 70.4422C 218.503 70.3606 223.834 69.6288 227.679 68.4731L 227.715 68.4622C 231.59 67.2923 234 65.7055 234 63.9163L 234 6.53717C 234 4.73556 231.559 3.09871 227.633 1.91683Z"/>
<path id="path1_stroke_2x" d="M 227.633 1.91683L 228.21 0.00175653L 228.21 0.00174137L 227.633 1.91683ZM 6.36649 68.5361L 6.94311 66.6211L 6.94306 66.621L 6.36649 68.5361ZM 65.0772 70.453L 67.0772 70.4631L 67.0873 68.453L 65.0772 68.453L 65.0772 70.453ZM 65.0376 78.2813L 63.0376 78.2711L 63.0376 78.2721L 65.0376 78.2813ZM 65.0159 83L 63.0159 82.9908L 63.0047 85.418L 65.3892 84.9648L 65.0159 83ZM 78.2671 80.4819L 78.6405 82.4467L 78.6674 82.4416L 78.6942 82.4358L 78.2671 80.4819ZM 124.388 70.3992L 124.389 68.3992L 124.172 68.3991L 123.96 68.4454L 124.388 70.3992ZM 212.661 70.4422L 212.66 72.4422L 212.675 72.4422L 212.689 72.442L 212.661 70.4422ZM 227.679 68.4731L 228.254 70.3884L 228.255 70.3882L 227.679 68.4731ZM 227.715 68.4622L 228.291 70.3773L 228.293 70.3769L 227.715 68.4622ZM 234 6.53717L 236 6.53717L 236 6.53717L 234 6.53717ZM 228.21 0.00174137C 224.132 -1.21962 218.406 -1.99549 212.288 -2L 212.288 2C 218.137 1.99549 223.284 2.68964 227.057 3.83192L 228.21 0.00174137ZM 212.288 -2L 21.7105 -2L 21.7105 2L 212.288 2L 212.288 -2ZM 21.7105 -2C 15.5943 -1.99549 9.86817 -1.21962 5.7899 0.00174895L 6.94309 3.83191C 10.7154 2.68964 15.8628 1.99549 21.7105 2L 21.7105 -2ZM 5.7899 0.00174895C 3.70929 0.632217 1.82316 1.47409 0.552887 2.36417C -0.742432 3.28441 -2 4.66614 -2 6.53717L 2 6.53717C 2 6.6066 1.96295 6.26909 2.86952 5.62503C 3.80113 4.95082 5.09825 4.38332 6.94309 3.83191L 5.7899 0.00174895ZM -2 6.53717L -2 63.9163L 2 63.9163L 2 6.53717L -2 6.53717ZM -2 63.9163C -2 65.7873 -0.742218 67.1689 0.552956 68.089C 1.82321 68.9789 3.70931 69.8208 5.78993 70.4512L 6.94306 66.621C 5.09823 66.0697 3.80109 65.5022 2.86945 64.828C 1.96274 64.1839 2 63.8465 2 63.9163L -2 63.9163ZM 5.78988 70.4512C 9.86815 71.6726 15.5943 72.4485 21.7105 72.453L 21.7105 68.453C 15.8628 68.4575 10.7154 67.7634 6.94311 66.6211L 5.78988 70.4512ZM 21.7105 72.453L 65.0772 72.453L 65.0772 68.453L 21.7105 68.453L 21.7105 72.453ZM 63.0772 70.4429L 63.0376 78.2711L 67.0375 78.2914L 67.0772 70.4631L 63.0772 70.4429ZM 63.0376 78.2721L 63.0159 82.9908L 67.0158 83.0092L 67.0375 78.2905L 63.0376 78.2721ZM 65.3892 84.9648L 78.6405 82.4467L 77.8937 78.5171L 64.6425 81.0352L 65.3892 84.9648ZM 78.6942 82.4358L 124.815 72.3531L 123.96 68.4454L 77.84 78.528L 78.6942 82.4358ZM 124.387 72.3992L 212.66 72.4422L 212.662 68.4422L 124.389 68.3992L 124.387 72.3992ZM 212.689 72.442C 218.653 72.3549 224.26 71.5831 228.254 70.3884L 227.103 66.5578C 223.409 67.6746 218.352 68.3662 212.633 68.4423L 212.689 72.442ZM 228.255 70.3882L 228.291 70.3773L 227.138 66.5471L 227.102 66.558L 228.255 70.3882ZM 228.293 70.3769C 230.344 69.7538 232.206 68.9299 233.463 68.0559C 234.748 67.1499 236 65.7833 236 63.9163L 232 63.9163C 232 63.8385 232.047 64.1599 231.158 64.7871C 230.241 65.4463 228.96 66.0008 227.137 66.5476L 228.293 70.3769ZM 236 63.9163L 236 6.53717L 232 6.53717L 232 63.9163L 236 63.9163ZM 236 6.53717C 236 4.66609 234.742 3.28437 233.447 2.36416C 232.177 1.47408 230.291 0.632222 228.21 0.00175653L 227.057 3.83191C 228.902 4.38332 230.199 4.95082 231.13 5.62504C 232.037 6.26914 232 6.60665 232 6.53717L 236 6.53717Z"/>
</defs>
</svg>
