<svg width="74" height="71" viewBox="0 0 74 71" version="1.1" xmlns="http://www.w3.org/2000/svg" xmlns:xlink="http://www.w3.org/1999/xlink">
<title>starfish</title>
<desc>Created using Figma</desc>
<g id="Canvas" transform="translate(-1434 -960)">
<g id="starfish">
<g id="Vector">
<use xlink:href="#path0_fill" transform="translate(1434 960)" fill="#FF6F43"/>
</g>
<g id="Group" opacity="0.1">
<g id="Vector" opacity="0.1">
<use xlink:href="#path1_fill" transform="translate(1471.93 1023.01)"/>
</g>
<g id="Vector" opacity="0.1">
<use xlink:href="#path2_fill" transform="translate(1434 982.427)"/>
</g>
</g>
<g id="Group">
<g id="Vector">
<use xlink:href="#path3_fill" transform="translate(1457.88 983.925)" fill="#263238"/>
</g>
<g id="Vector">
<use xlink:href="#path4_fill" transform="translate(1478.88 983.925)" fill="#263238"/>
</g>
<g id="Vector">
<use xlink:href="#path5_fill" transform="translate(1462.94 990.298)" fill="#263238"/>
</g>
</g>
<g id="Vector">
<use xlink:href="#path6_fill" transform="translate(1463.64 994.652)" fill="#F473B4"/>
</g>
</g>
</g>
<defs>
<path id="path0_fill" d="M 68.9564 22.6786L 60.7227 21.4812C 54.3357 20.5526 48.8143 16.5386 45.958 10.7473L 42.2758 3.28157C 40.1178 -1.09386 33.8824 -1.09386 31.7243 3.28157L 28.0421 10.7473C 25.1857 16.5386 19.6645 20.5526 13.2774 21.4812L 5.04364 22.6786C 0.218189 23.3802 -1.70869 29.314 1.78302 32.7199L 7.74101 38.5312C 12.3627 43.0391 14.4715 49.534 13.3806 55.8991L 11.9742 64.1048C 11.1499 68.9139 16.1943 72.5813 20.5105 70.3107L 27.875 66.4365C 33.5877 63.4312 40.4123 63.4312 46.125 66.4365L 53.4896 70.3107C 57.8057 72.5813 62.8502 68.9139 62.0259 64.1048L 60.6195 55.8991C 59.5284 49.534 61.6374 43.0391 66.259 38.5312L 72.217 32.7199C 75.7086 29.3142 73.7819 23.3803 68.9564 22.6786Z"/>
<path id="path1_fill" d="M 16.5184 2.36819C 11.3796 -0.33511 5.38579 -0.723138 2.82287e-07 1.19948C 2.82225 1.33326 5.62224 2.07503 8.19619 3.42928L 15.5608 7.30345C 18.2736 8.7306 21.2738 7.81151 22.9239 5.73791L 16.5184 2.36819Z"/>
<path id="path2_fill" d="M 18.5443 40.4974L 20.0229 31.8708C 21.1699 25.1789 18.9528 18.3508 14.094 13.6116L 7.83033 7.50219C 5.64387 5.36957 5.47896 2.29459 6.77454 4.06047e-07L 5.04364 0.251643C 0.218189 0.953211 -1.70869 6.88725 1.78302 10.293L 7.74101 16.1044C 12.3627 20.6123 14.4717 27.1072 13.3806 33.4723L 11.9742 41.678C 11.1499 46.4871 16.1943 50.1545 20.5104 47.8839L 21.9582 47.1223C 19.6369 45.9929 18.0381 43.4502 18.5443 40.4974Z"/>
<path id="path3_fill" d="M 2.6189 5.24115C 4.06527 5.24115 5.23779 4.06788 5.23779 2.62057C 5.23779 1.17327 4.06527 0 2.6189 0C 1.17252 0 0 1.17327 0 2.62057C 0 4.06788 1.17252 5.24115 2.6189 5.24115Z"/>
<path id="path4_fill" d="M 2.6189 5.24115C 4.06527 5.24115 5.23779 4.06788 5.23779 2.62057C 5.23779 1.17327 4.06527 0 2.6189 0C 1.17252 0 0 1.17327 0 2.62057C 0 4.06788 1.17252 5.24115 2.6189 5.24115Z"/>
<path id="path5_fill" d="M 15.4305 5.56843C 16.3346 4.36184 16.38 2.65746 15.43 1.39143C 14.2763 -0.145338 12.0991 -0.457145 10.5636 0.696804C 10.4175 0.797462 9.56476 1.17392 8.06193 1.17392C 6.5591 1.17392 5.70651 0.797751 5.56588 0.700853C 4.03024 -0.452951 1.85014 -0.143314 0.696786 1.3936C -0.248445 2.65283 -0.210287 4.34464 0.679589 5.54964L 0.70488 5.58044L 15.4197 5.58044L 15.4191 5.57972C 15.4193 5.57986 15.4196 5.57986 15.4197 5.58001L 15.4305 5.56843Z"/>
<path id="path6_fill" d="M 7.35806 2.29505e-07C 4.46037 2.29505e-07 1.84826 0.471615 -6.88074e-07 1.22626C 0.191358 1.47921 0.418128 1.71176 0.684209 1.91178C 2.26364 3.0987 4.6958 3.77944 7.35719 3.77944C 10.0186 3.77944 12.4507 3.09855 14.0305 1.91163C 14.2967 1.71147 14.5236 1.47892 14.7151 1.22568C 12.8664 0.471471 10.255 2.29505e-07 7.35806 2.29505e-07Z"/>
</defs>
</svg>
