<svg width="38" height="34" viewBox="0 0 38 34" version="1.1" xmlns="http://www.w3.org/2000/svg" xmlns:xlink="http://www.w3.org/1999/xlink">
<title>starfish (1)</title>
<desc>Created using Figma</desc>
<g id="Canvas" transform="translate(154 -1417)">
<g id="starfish (1)">
<g id="Vector">
<use xlink:href="#path0_fill" transform="translate(-154 1417)" fill="#FFFFFF"/>
</g>
</g>
</g>
<defs>
<path id="path0_fill" d="M 37.9493 12.9168C 37.8281 12.5662 37.5119 12.3159 37.1233 12.2638L 28.6351 11.107C 26.5056 10.816 24.666 9.56137 23.7126 7.75213L 19.9181 0.535528C 19.7448 0.205826 19.3927 -3.02918e-08 19.0007 -3.02918e-08C 18.6086 -3.02918e-08 18.2565 0.20519 18.0839 0.535528L 14.2874 7.7515C 13.3354 9.56137 11.495 10.8154 9.36484 11.1063L 0.878057 12.2638C 0.489401 12.3159 0.172518 12.5668 0.0506402 12.9175C -0.0705608 13.2675 0.02965 13.6448 0.30997 13.9002L 6.45195 19.5172C 7.99235 20.9269 8.69518 22.9566 8.33158 24.9462L 6.88123 32.8775C 6.83045 33.157 6.91238 33.4416 7.10603 33.6576C 7.40869 33.9943 7.95173 34.0953 8.36476 33.8888L 15.9578 30.1439C 17.8245 29.2222 20.172 29.2222 22.0408 30.1439L 29.6325 33.8888C 29.7801 33.9613 29.9446 34 30.1092 34C 30.4105 34 30.6962 33.8755 30.8919 33.6576C 31.0856 33.4416 31.1675 33.1576 31.1167 32.8775L 29.6663 24.9462C 29.3027 22.9559 30.0056 20.9269 31.5467 19.5172L 37.6866 13.9015C 37.971 13.6449 38.0705 13.2675 37.9493 12.9168ZM 5.93532 14.3265C 5.80396 14.6549 5.41328 14.8207 5.06322 14.6975C 4.71316 14.5742 4.53643 14.2077 4.66779 13.8793C 4.79982 13.5508 5.18983 13.385 5.5399 13.5083C 5.88996 13.6321 6.06736 13.9987 5.93532 14.3265ZM 8.47039 15.2216C 8.33903 15.55 7.94834 15.7158 7.59828 15.5926C 7.24822 15.4693 7.0715 15.1028 7.20285 14.7744C 7.33421 14.4459 7.7249 14.2801 8.07496 14.4034C 8.42502 14.5266 8.60174 14.8931 8.47039 15.2216ZM 24.8562 16.1929C 25.2063 16.0697 25.597 16.2355 25.7283 16.5639C 25.8604 16.8923 25.683 17.2589 25.3329 17.3821C 24.9828 17.5054 24.5922 17.3395 24.4608 17.0111C 24.3294 16.6827 24.5062 16.3161 24.8562 16.1929ZM 19.0007 4.08221C 19.3744 4.08221 19.6778 4.36681 19.6778 4.71747C 19.6778 5.06814 19.3744 5.35274 19.0007 5.35274C 18.6269 5.35274 18.3236 5.06814 18.3236 4.71747C 18.3236 4.36681 18.6262 4.08221 19.0007 4.08221ZM 19.0007 6.62327C 19.3744 6.62327 19.6778 6.90787 19.6778 7.25853C 19.6778 7.6092 19.3744 7.8938 19.0007 7.8938C 18.6269 7.8938 18.3236 7.6092 18.3236 7.25853C 18.3236 6.90787 18.6262 6.62327 19.0007 6.62327ZM 19.0007 9.16433C 19.3744 9.16433 19.6778 9.44893 19.6778 9.79959C 19.6778 10.1503 19.3744 10.4349 19.0007 10.4349C 18.6269 10.4349 18.3236 10.1503 18.3236 9.79959C 18.3236 9.44893 18.6262 9.16433 19.0007 9.16433ZM 19.0007 11.7054C 19.3744 11.7054 19.6778 11.99 19.6778 12.3407C 19.6778 12.6913 19.3744 12.9759 19.0007 12.9759C 18.6269 12.9759 18.3236 12.6913 18.3236 12.3407C 18.3236 11.99 18.6262 11.7054 19.0007 11.7054ZM 12.273 16.5639C 12.4043 16.2355 12.795 16.0697 13.1451 16.1929C 13.4952 16.3168 13.6719 16.6827 13.5405 17.0111C 13.4092 17.3395 13.0185 17.5054 12.6684 17.3821C 12.3183 17.2582 12.141 16.8923 12.273 16.5639ZM 9.73792 15.6688C 9.86995 15.3404 10.26 15.1746 10.61 15.2978C 10.9601 15.4211 11.1368 15.7876 11.0055 16.116C 10.8741 16.4445 10.4834 16.6103 10.1333 16.487C 9.78329 16.3638 9.60656 15.9972 9.73792 15.6688ZM 11.1449 29.5373C 10.9147 29.8136 10.4888 29.8625 10.1943 29.6465C 9.89975 29.4305 9.84761 29.031 10.0778 28.7546C 10.308 28.4783 10.7339 28.4294 11.0285 28.6454C 11.323 28.8613 11.3751 29.2609 11.1449 29.5373ZM 12.8126 27.5355C 12.5824 27.8119 12.1565 27.8608 11.862 27.6448C 11.5674 27.4288 11.5153 27.0292 11.7455 26.7529C 11.9757 26.4766 12.4016 26.4276 12.6962 26.6436C 12.9907 26.8596 13.0428 27.2592 12.8126 27.5355ZM 14.4803 25.5332C 14.2501 25.8095 13.8242 25.8584 13.5297 25.6425C 13.2351 25.4265 13.183 25.0269 13.4132 24.7505C 13.6434 24.4742 14.0693 24.4253 14.3639 24.6413C 14.6584 24.8579 14.7105 25.2569 14.4803 25.5332ZM 16.1487 23.5315C 15.9185 23.8078 15.4926 23.8567 15.1981 23.6407C 14.9035 23.4247 14.8514 23.0252 15.0816 22.7488C 15.3118 22.4725 15.7377 22.4236 16.0322 22.6396C 16.3268 22.8556 16.3789 23.2551 16.1487 23.5315ZM 22.8033 23.6407C 22.5087 23.8567 22.0835 23.8078 21.8526 23.5315C 21.6224 23.2551 21.6745 22.8556 21.9691 22.6396C 22.2636 22.4236 22.6895 22.4725 22.9197 22.7488C 23.1499 23.0252 23.0978 23.4247 22.8033 23.6407ZM 19.0007 21.8696C 16.7601 21.8696 14.9381 20.1601 14.9381 18.058C 14.9381 15.9559 16.7601 14.2464 19.0007 14.2464C 21.2412 14.2464 23.0633 15.9559 23.0633 18.058C 23.0633 20.1601 21.2412 21.8696 19.0007 21.8696ZM 24.471 25.6425C 24.1764 25.8584 23.7505 25.8095 23.5203 25.5332C 23.2901 25.2569 23.3422 24.8573 23.6368 24.6413C 23.9313 24.4253 24.3572 24.4742 24.5874 24.7505C 24.8176 25.0269 24.7655 25.4265 24.471 25.6425ZM 26.1387 27.6448C 25.8441 27.8608 25.4189 27.8119 25.188 27.5355C 24.9578 27.2592 25.0099 26.8596 25.3045 26.6436C 25.599 26.4276 26.0249 26.4766 26.2551 26.7529C 26.4853 27.0292 26.4332 27.4288 26.1387 27.6448ZM 27.8064 29.6465C 27.5118 29.8625 27.0859 29.8136 26.8557 29.5373C 26.6255 29.2609 26.6776 28.8613 26.9722 28.6454C 27.2667 28.4294 27.6926 28.4783 27.9228 28.7546C 28.153 29.031 28.1009 29.4305 27.8064 29.6465ZM 27.868 16.487C 27.5179 16.6103 27.1272 16.4445 26.9959 16.116C 26.8638 15.7876 27.0412 15.4211 27.3913 15.2978C 27.7413 15.1739 28.132 15.3404 28.2634 15.6688C 28.3948 15.9972 28.218 16.3638 27.868 16.487ZM 30.403 15.5926C 30.053 15.7158 29.6623 15.55 29.5309 15.2216C 29.3996 14.8931 29.5763 14.5266 29.9264 14.4034C 30.2764 14.2801 30.6671 14.4459 30.7985 14.7744C 30.9298 15.1028 30.7531 15.4687 30.403 15.5926ZM 32.9381 14.6975C 32.588 14.8214 32.1973 14.6549 32.066 14.3265C 31.934 13.9981 32.1114 13.6315 32.4614 13.5083C 32.8115 13.385 33.2022 13.5508 33.3335 13.8793C 33.4649 14.2077 33.2875 14.5736 32.9381 14.6975Z"/>
</defs>
</svg>
