<svg width="36" height="34" viewBox="0 0 36 34" version="1.1" xmlns="http://www.w3.org/2000/svg" xmlns:xlink="http://www.w3.org/1999/xlink">
<title>starfish</title>
<desc>Created using Figma</desc>
<g id="Canvas" transform="translate(444 -1146)">
<g id="starfish">
<g id="Vector">
<use xlink:href="#path0_fill" transform="translate(-444 1146)" fill="#FF6F43"/>
</g>
<g id="Group" opacity="0.1">
<g id="Vector" opacity="0.1">
<use xlink:href="#path1_fill" transform="translate(-425.548 1176.17)"/>
</g>
<g id="Vector" opacity="0.1">
<use xlink:href="#path2_fill" transform="translate(-444 1156.74)"/>
</g>
</g>
<g id="Group">
<g id="Vector">
<use xlink:href="#path3_fill" transform="translate(-432.381 1157.46)" fill="#263238"/>
</g>
<g id="Vector">
<use xlink:href="#path4_fill" transform="translate(-422.167 1157.46)" fill="#263238"/>
</g>
<g id="Vector">
<use xlink:href="#path5_fill" transform="translate(-429.922 1160.51)" fill="#263238"/>
</g>
</g>
<g id="Vector">
<use xlink:href="#path6_fill" transform="translate(-429.579 1162.59)" fill="#F473B4"/>
</g>
</g>
</g>
<defs>
<path id="path0_fill" d="M 33.5464 10.8602L 29.5408 10.2868C 26.4336 9.8421 23.7475 7.9199 22.3579 5.1466L 20.5666 1.57146C 19.5168 -0.523819 16.4833 -0.523819 15.4334 1.57146L 13.6421 5.1466C 12.2525 7.9199 9.56652 9.8421 6.45928 10.2868L 2.45366 10.8602C 0.106146 11.1961 -0.831257 14.0377 0.867417 15.6687L 3.7659 18.4515C 6.01427 20.6103 7.0402 23.7205 6.50948 26.7686L 5.82527 30.6981C 5.42428 33.001 7.87832 34.7572 9.97806 33.6699L 13.5608 31.8147C 16.34 30.3755 19.6601 30.3755 22.4392 31.8147L 26.022 33.6699C 28.1217 34.7572 30.5757 33.001 30.1748 30.6981L 29.4905 26.7686C 28.9598 23.7205 29.9858 20.6103 32.2341 18.4515L 35.1326 15.6687C 36.8312 14.0378 35.8939 11.1962 33.5464 10.8602Z"/>
<path id="path1_fill" d="M 8.03599 1.13406C 5.53604 -0.160475 2.62012 -0.346291 1.37329e-07 0.5744C 1.37299 0.638462 2.73515 0.993677 3.98734 1.64219L 7.5701 3.49743C 8.88986 4.18085 10.3494 3.74073 11.1522 2.74773L 8.03599 1.13406Z"/>
<path id="path2_fill" d="M 9.02153 19.3931L 9.74089 15.2621C 10.2989 12.0575 9.2203 8.78771 6.85654 6.51825L 3.80935 3.5926C 2.74567 2.57134 2.66544 1.09882 3.29572 1.94445e-07L 2.45366 0.120505C 0.106146 0.456467 -0.831257 3.29812 0.867417 4.92903L 3.7659 7.71195C 6.01427 9.87067 7.04027 12.9809 6.50948 16.029L 5.82527 19.9585C 5.42428 22.2614 7.87832 24.0176 9.97806 22.9303L 10.6824 22.5656C 9.55309 22.0248 8.77529 20.8071 9.02153 19.3931Z"/>
<path id="path3_fill" d="M 1.27406 2.50984C 1.9777 2.50984 2.54812 1.948 2.54812 1.25492C 2.54812 0.561848 1.9777 0 1.27406 0C 0.570415 0 0 0.561848 0 1.25492C 0 1.948 0.570415 2.50984 1.27406 2.50984Z"/>
<path id="path4_fill" d="M 1.27406 2.50984C 1.9777 2.50984 2.54812 1.948 2.54812 1.25492C 2.54812 0.561848 1.9777 0 1.27406 0C 0.570415 0 0 0.561848 0 1.25492C 0 1.948 0.570415 2.50984 1.27406 2.50984Z"/>
<path id="path5_fill" d="M 7.50675 2.66657C 7.94655 2.08877 7.96863 1.27259 7.50647 0.666318C 6.94523 -0.0695986 5.88605 -0.218914 5.13905 0.333681C 5.06797 0.381883 4.65313 0.562157 3.92202 0.562157C 3.19091 0.562157 2.77614 0.382022 2.70773 0.33562C 1.96066 -0.216906 0.900069 -0.068629 0.338977 0.667357C -0.120865 1.27037 -0.102302 2.08053 0.330611 2.65757L 0.342915 2.67232L 7.50148 2.67232L 7.50119 2.67198C 7.50126 2.67205 7.50141 2.67205 7.50148 2.67212L 7.50675 2.66657Z"/>
<path id="path6_fill" d="M 3.5796 1.09904e-07C 2.16991 1.09904e-07 0.899153 0.225844 -3.34739e-07 0.587223C 0.0930931 0.708352 0.203414 0.819717 0.332859 0.915498C 1.10123 1.48388 2.28445 1.80987 3.57918 1.80987C 4.87391 1.80987 6.05712 1.48381 6.82563 0.915429C 6.95515 0.819578 7.06554 0.708213 7.1587 0.586946C 6.25934 0.225775 4.98894 1.09904e-07 3.5796 1.09904e-07Z"/>
</defs>
</svg>
