<svg width="137" height="99" viewBox="0 0 137 99" version="1.1" xmlns="http://www.w3.org/2000/svg" xmlns:xlink="http://www.w3.org/1999/xlink">
<title>turtle</title>
<desc>Created using Figma</desc>
<g id="Canvas" transform="translate(1369 -1013)">
<g id="turtle">
<g id="Vector">
<use xlink:href="#path0_fill" transform="translate(-1315.07 1087.45)" fill="#97B05F"/>
</g>
<g id="Vector">
<use xlink:href="#path1_fill" transform="translate(-1308.01 1100.65)" fill="#BDD186"/>
</g>
<g id="Vector">
<use xlink:href="#path2_fill" transform="translate(-1361.51 1086.42)" fill="#F8E9B4"/>
</g>
<g id="Vector" opacity="0.1">
<use xlink:href="#path3_fill" transform="translate(-1329.24 1086.42)"/>
</g>
<g id="Vector">
<use xlink:href="#path4_fill" transform="translate(-1353.5 1087.45)" fill="#97B05F"/>
</g>
<g id="Vector">
<use xlink:href="#path5_fill" transform="translate(-1346.44 1100.65)" fill="#BDD186"/>
</g>
<g id="Vector" opacity="0.1">
<use xlink:href="#path6_fill" transform="translate(-1353.5 1087.45)"/>
</g>
<g id="Vector">
<use xlink:href="#path7_fill" transform="translate(-1332.79 1087.45)" fill="#97B05F"/>
</g>
<g id="Vector">
<use xlink:href="#path8_fill" transform="translate(-1325.73 1100.65)" fill="#BDD186"/>
</g>
<g id="Vector" opacity="0.1">
<use xlink:href="#path9_fill" transform="translate(-1332.79 1087.45)"/>
</g>
<g id="Vector">
<use xlink:href="#path10_fill" transform="translate(-1361.15 1053.92)" fill="#97B05F"/>
</g>
<g id="Vector" opacity="0.15">
<use xlink:href="#path11_fill" transform="translate(-1351.28 1053.92)"/>
</g>
<g id="Vector">
<use xlink:href="#path12_fill" transform="translate(-1366.57 1066.33)" fill="#BDD186"/>
</g>
<g id="Vector">
<use xlink:href="#path13_fill" transform="translate(-1317.78 1015.54)" fill="#97B05F"/>
</g>
<g id="Vector" opacity="0.1">
<use xlink:href="#path14_fill" transform="translate(-1317.78 1075.98)"/>
</g>
<g id="Vector">
<use xlink:href="#path15_fill" transform="translate(-1369 1013)"/>
</g>
</g>
</g>
<defs>
<path id="path0_fill" d="M 10.6436 22.0138L 2.31131 22.0138C 1.03471 22.0138 -6.53259e-08 20.7716 -6.53259e-08 19.2397L -6.53259e-08 3.05787e-06L 12.9549 3.05787e-06L 12.9549 19.2397C 12.9549 20.7716 11.9202 22.0138 10.6436 22.0138Z"/>
<path id="path1_fill" d="M 5.89628 -1.64654e-06L 5.89628 6.03706C 5.89628 7.56929 4.8613 8.81119 3.58497 8.81119L 1.24119e-06 8.81119L 1.24119e-06 7.07663C 0.000268816 3.16819 2.6399 -1.64654e-06 5.89628 -1.64654e-06Z"/>
<path id="path2_fill" d="M 53.3606 11.9232L 9.93399 11.9232C 4.44736 11.9232 -7.75746e-08 6.58495 -7.75746e-08 3.92034e-07L 63.2949 3.92034e-07C 63.2949 6.58463 58.8473 11.9232 53.3606 11.9232Z"/>
<path id="path3_fill" d="M -6.85922e-07 -1.88176e-06L -6.85922e-07 4.88379L 30.1576 4.88379C 30.7163 3.39267 31.0296 1.74066 31.0296 0.000321546L -6.85922e-07 0.000321546L -6.85922e-07 -1.88176e-06Z"/>
<path id="path4_fill" d="M 10.6436 22.0138L 2.31131 22.0138C 1.03471 22.0138 -7.34917e-08 20.7716 -7.34917e-08 19.2397L -7.34917e-08 3.05787e-06L 12.9549 3.05787e-06L 12.9549 19.2397C 12.9549 20.7716 11.9199 22.0138 10.6436 22.0138Z"/>
<path id="path5_fill" d="M 5.89628 -1.64654e-06L 5.89628 6.03706C 5.89628 7.56929 4.8613 8.81119 3.58497 8.81119L 2.12309e-07 8.81119L 2.12309e-07 7.07663C 2.12309e-07 3.16819 2.63963 -1.64654e-06 5.89628 -1.64654e-06Z"/>
<path id="path6_fill" d="M 12.9549 0L 0 0L 0 7.23015L 12.9549 7.23015L 12.9549 0Z"/>
<path id="path7_fill" d="M 10.6436 22.0138L 2.31132 22.0138C 1.03471 22.0138 1.66581e-06 20.7716 1.66581e-06 19.2397L 1.66581e-06 3.05787e-06L 12.9549 3.05787e-06L 12.9549 19.2397C 12.9552 20.7716 11.9202 22.0138 10.6436 22.0138Z"/>
<path id="path8_fill" d="M 5.89628 -1.64654e-06L 5.89628 6.03706C 5.89628 7.56929 4.8613 8.81119 3.58497 8.81119L 7.83911e-07 8.81119L 7.83911e-07 7.07663C 7.83911e-07 3.16819 2.6399 -1.64654e-06 5.89628 -1.64654e-06Z"/>
<path id="path9_fill" d="M 1.66581e-06 3.05787e-06L 1.66581e-06 7.23015L 3.83944 7.23015C 7.10572 7.23015 10.2537 6.11799 12.9549 4.12458L 12.9549 3.05787e-06L 1.66581e-06 3.05787e-06L 1.66581e-06 3.05787e-06Z"/>
<path id="path10_fill" d="M 62.9331 32.5005L 2.40889e-07 32.5005L 3.48731 15.0637C 5.25437 6.22878 11.8373 1.37212e-06 19.4075 1.37212e-06L 43.5259 1.37212e-06C 51.0959 1.37212e-06 57.679 6.22878 59.4461 15.0637L 62.9331 32.5005Z"/>
<path id="path11_fill" d="M 27.7673 8.71549L 31.9597 -1.25451e-06L 27.0807 -1.25451e-06L 24.108 6.17998L 14.4908 6.17998L 11.518 -1.25451e-06L 9.53932 -1.25451e-06C 8.59986 -1.25451e-06 7.67593 0.0963473 6.7742 0.281332L 10.8314 8.71581L 3.10298e-07 31.2329L 1.82968 32.5008L 4.26916 32.5008L 14.4908 11.2516L 24.1082 11.2516L 34.3296 32.5008L 36.7691 32.5008L 38.5988 31.2329L 27.7673 8.71549Z"/>
<path id="path12_fill" d="M 37.6186 24.9675L 4.06901 24.9675C 1.82192 24.9675 -2.04144e-08 22.7811 -2.04144e-08 20.084C -2.04144e-08 17.387 1.82165 15.2002 4.06901 15.2002L 37.6186 15.2002C 40.9221 15.2002 43.9992 13.0662 45.6488 9.63077C 48.5015 3.69038 53.8225 4.46919e-06 59.5354 4.46919e-06L 67.1378 4.46919e-06C 69.3849 4.46919e-06 71.2065 2.18642 71.2065 4.88348C 71.2065 7.58053 69.3849 9.76727 67.1378 9.76727L 59.5354 9.76727C 56.7232 9.76727 54.1039 11.584 52.6997 14.5081C 49.6015 20.9595 43.8226 24.9675 37.6186 24.9675Z"/>
<path id="path13_fill" d="M 53.3125 -3.72432e-07L 44.5226 -3.72432e-07C 27.6707 -3.72432e-07 14.0097 16.3965 14.0097 36.6228L 14.0097 56.7053C 14.0097 58.8364 12.5704 60.5636 10.795 60.5633C 7.97695 60.5633 5.33117 62.321 3.93068 65.256C 2.89516 67.426 1.55541 69.3189 2.28641e-07 70.8797L 24.1784 70.8797C 27.2081 70.8797 29.8697 68.9965 31.4005 66.1539L 58.8984 66.1539C 72.576 66.1539 83.6643 52.8456 83.6643 36.4289C 83.6638 16.3098 70.0752 -3.72432e-07 53.3125 -3.72432e-07Z"/>
<path id="path14_fill" d="M 10.795 0.123647C 7.97695 0.123647 5.33116 1.88132 3.93068 4.81635C 2.89516 6.98639 1.55541 8.87927 -1.95978e-06 10.4401L 3.20448 10.4401C 5.37103 8.68947 7.2181 6.35308 8.56133 3.55679C 9.29074 2.03805 10.3495 0.821834 11.5911 -4.70441e-07C 11.3355 0.0777189 11.0698 0.123647 10.795 0.123647Z"/>
<path id="path15_fill" d="M 104.534 8.82077e-07L 95.7437 8.82077e-07C 77.7538 8.82077e-07 63.118 17.5665 63.118 39.1587L 63.118 43.4136C 59.8629 40.1921 55.7479 38.3789 51.38 38.3789L 27.2616 38.3789C 18.6815 38.3789 11.29 45.3727 9.28724 55.3869L 7.16564 65.9959L 6.49831 65.9959C 3.08967 65.9959 0.316792 69.3244 0.316792 73.4152C 0.316792 76.165 1.57065 78.5685 3.42735 79.8499C 2.23718 80.8734 1.19283 82.1474 0.36228 83.6231C -0.290871 84.7838 -0.0366745 86.36 0.930074 87.1443C 1.29264 87.4384 1.7039 87.5791 2.11088 87.5791C 2.78919 87.5791 3.45518 87.1879 3.8635 86.4628C 4.89152 84.6367 6.41188 83.2779 8.13667 82.6064C 9.5187 84.6174 11.3331 86.1532 13.39 87.0325L 13.39 93.6897C 13.39 96.6177 15.3746 99 17.8143 99L 26.1466 99C 28.5861 99 30.5707 96.618 30.5707 93.6897L 30.5707 87.8742L 34.0968 87.8742L 34.0968 93.6897C 34.0968 96.6177 36.0814 99 38.5209 99L 46.8532 99C 49.2927 99 51.2773 96.618 51.2773 93.6897L 51.2773 87.8742L 51.8196 87.8742L 51.8196 93.6897C 51.8196 96.6177 53.8042 99 56.244 99L 64.5763 99C 67.0158 99 69.0004 96.618 69.0004 93.6897L 69.0004 84.057C 70.9039 81.9563 72.2418 79.1315 72.713 75.9508L 75.4013 75.9508C 78.6496 75.9508 81.6714 74.2075 83.6956 71.2246L 110.121 71.2246C 124.942 71.2246 137 56.7525 137 38.9637C 136.998 17.4795 122.434 8.82077e-07 104.534 8.82077e-07ZM 13.3961 56.5707C 14.9408 48.8457 20.6429 43.4506 27.2619 43.4506L 51.3803 43.4506C 56.088 43.4506 60.4112 46.1849 63.0797 50.796L 61.9647 50.796C 55.4991 50.796 49.4765 54.9729 46.2482 61.696C 44.9743 64.3484 42.5985 65.9959 40.0479 65.9959L 11.5111 65.9959L 13.3961 56.5707ZM 13.3894 81.4524C 13.1296 81.2642 12.8802 81.0577 12.6408 80.8352L 13.3894 80.8352L 13.3894 81.4524ZM 26.3444 93.69C 26.3444 93.8217 26.2552 93.9287 26.1458 93.9287L 17.8135 93.9287C 17.7038 93.9287 17.6147 93.8217 17.6147 93.69L 17.6147 80.8355L 26.3441 80.8355L 26.3441 93.69L 26.3444 93.69ZM 34.0957 82.8032L 30.5696 82.8032L 30.5696 80.8352L 34.0957 80.8352L 34.0957 82.8032ZM 47.0504 93.69C 47.0504 93.8217 46.9613 93.9287 46.8518 93.9287L 38.5196 93.9287C 38.4098 93.9287 38.321 93.8217 38.321 93.69L 38.321 80.8355L 40.0479 80.8355C 42.4537 80.8355 44.8268 80.2895 47.0506 79.2599L 47.0506 93.69L 47.0504 93.69ZM 50.3817 70.9285C 50.3766 70.934 50.3715 70.9395 50.367 70.9443C 50.2027 71.1241 50.0357 71.2992 49.8661 71.4694C 47.1063 74.2384 43.6193 75.7632 40.0479 75.7632L 6.49804 75.7632C 5.41945 75.7632 4.54207 74.7101 4.54207 73.4149C 4.54207 72.1204 5.41945 71.0673 6.49804 71.0673L 40.0479 71.0673C 44.1044 71.0673 47.8828 68.447 49.9086 64.2286C 52.3853 59.0712 57.0044 55.8674 61.9645 55.8674L 63.1183 55.8674L 63.1183 59.2408C 63.1183 59.594 63.0037 59.9261 62.7958 60.176C 62.5877 60.4258 62.311 60.563 62.0166 60.563L 61.9647 60.563C 60.6745 60.563 59.4094 60.8613 58.219 61.4423C 58.2018 61.45 58.1847 61.4587 58.1697 61.466C 58.0836 61.5084 57.999 61.554 57.9145 61.6003L 57.8674 61.626C 55.928 62.6643 54.3549 64.3606 53.3189 66.5313C 53.214 66.751 53.1048 66.9668 52.9951 67.1755L 52.9065 67.34C 52.8201 67.5009 52.7318 67.6602 52.64 67.8198L 52.5488 67.9778C 52.3048 68.3924 52.0473 68.7938 51.7857 69.1686L 51.7303 69.247C 51.6056 69.4239 51.4782 69.5977 51.345 69.7724L 51.3027 69.8283C 51.0067 70.2127 50.6958 70.5839 50.3817 70.9285ZM 64.7729 93.69C 64.7729 93.8217 64.6838 93.9287 64.5744 93.9287L 56.2421 93.9287C 56.1324 93.9287 56.0433 93.8217 56.0433 93.69L 56.0433 87.8746L 60.8532 87.8746C 62.2254 87.8746 63.5432 87.5939 64.7727 87.0845L 64.7727 93.69L 64.7729 93.69ZM 60.8535 82.8032L 51.2759 82.8032L 51.2759 76.5561C 51.5074 76.3605 51.7356 76.1592 51.9606 75.9517L 68.3825 75.9517C 67.4581 79.8993 64.4339 82.8032 60.8535 82.8032ZM 110.119 66.1539L 82.621 66.1539C 81.9042 66.1539 81.2355 66.5904 80.8467 67.3133C 79.6442 69.5466 77.6077 70.8797 75.3989 70.8797L 56.0136 70.8797L 56.1169 70.7008C 56.2327 70.4998 56.3459 70.2959 56.4575 70.0878L 56.5678 69.8825C 56.7109 69.6096 56.8506 69.3334 56.9846 69.052C 57.5722 67.821 58.4724 66.8547 59.5948 66.2538L 59.6655 66.2153C 59.6978 66.1976 59.73 66.1796 59.7498 66.169C 59.7634 66.1629 59.7765 66.1565 59.788 66.1511C 60.4872 65.8081 61.2193 65.6343 61.9642 65.6343L 62.0164 65.6343C 63.4393 65.6343 64.777 64.9692 65.7833 63.7617C 66.7897 62.5541 67.3438 60.9483 67.3438 59.2401L 67.3438 39.1583C 67.3438 20.3625 80.0841 5.07103 95.7442 5.07103L 104.534 5.07103C 120.105 5.07103 132.773 20.2754 132.773 38.9641C 132.772 53.9568 122.61 66.1539 110.119 66.1539ZM 93.4942 28.3608C 92.3273 28.3608 91.3814 29.4961 91.3814 30.8967L 91.3814 34.6728C 91.3814 36.0733 92.3273 37.2086 93.4942 37.2086C 94.6611 37.2086 95.6069 36.0733 95.6069 34.6728L 95.6069 30.8967C 95.6069 29.4961 94.6611 28.3608 93.4942 28.3608ZM 123.355 28.3608C 122.188 28.3608 121.242 29.4961 121.242 30.8967L 121.242 34.6728C 121.242 36.0733 122.188 37.2086 123.355 37.2086C 124.522 37.2086 125.468 36.0733 125.468 34.6728L 125.468 30.8967C 125.468 29.4961 124.522 28.3608 123.355 28.3608ZM 115.477 36.2619C 114.31 36.2619 113.364 37.3971 113.364 38.7977C 113.364 39.7332 112.73 40.4944 111.951 40.4944C 111.171 40.4944 110.537 39.7332 110.537 38.7977C 110.537 37.3971 109.591 36.2619 108.424 36.2619C 107.257 36.2619 106.312 37.3971 106.312 38.7977C 106.312 39.7332 105.677 40.4944 104.898 40.4944C 104.118 40.4944 103.484 39.7332 103.484 38.7977C 103.484 37.3971 102.538 36.2619 101.371 36.2619C 100.204 36.2619 99.2585 37.3971 99.2585 38.7977C 99.2585 42.5298 101.788 45.5657 104.897 45.5657C 106.231 45.5657 107.458 45.0075 108.424 44.0752C 109.39 45.0069 110.617 45.5657 111.95 45.5657C 115.06 45.5657 117.589 42.5295 117.589 38.7977C 117.59 37.3975 116.644 36.2619 115.477 36.2619Z"/>
</defs>
</svg>
